<?xml version="1.0" encoding="UTF-8"?>
<svg xmlns="http://www.w3.org/2000/svg" xmlns:xlink="http://www.w3.org/1999/xlink" viewBox="0 0 480 480" width="480px" height="480px">
<g id="surface65521280">
<path style=" stroke:none;fill-rule:nonzero;fill:rgb(22.352941%,28.627452%,67.058825%);fill-opacity:1;" d="M 49.566406 186.164062 C 56.667969 209.566406 66.113281 237.398438 88.734375 254.601562 L 230.285156 208.828125 C 190.175781 199.257812 152.054688 174.835938 119.375 139.707031 Z M 49.566406 186.164062 "/>
<path style=" stroke:none;fill-rule:nonzero;fill:rgb(15.686275%,20.784314%,57.647061%);fill-opacity:1;" d="M 172.023438 183.839844 C 153.398438 172.148438 135.707031 157.265625 119.375 139.707031 L 54.75 182.714844 C 60.46875 201.542969 67.851562 223.09375 82.253906 239.761719 C 68.476562 209.460938 112.203125 190.847656 172.023438 183.839844 Z M 172.023438 183.839844 "/>
<path style=" stroke:none;fill-rule:nonzero;fill:rgb(22.352941%,28.627452%,67.058825%);fill-opacity:1;" d="M 150.699219 365.300781 L 197.605469 418.011719 C 218.082031 441.695312 245.75 444.113281 266.449219 426.566406 C 277.929688 416.824219 307.957031 385.125 307.957031 385.125 C 277.785156 371 244.261719 331.527344 204.652344 287.53125 L 128.417969 319.554688 Z M 150.699219 365.300781 "/>
<path style=" stroke:none;fill-rule:nonzero;fill:rgb(15.686275%,20.784314%,57.647061%);fill-opacity:1;" d="M 255.207031 342.863281 C 241.410156 328.28125 226.859375 311.789062 211.363281 294.574219 L 135.128906 326.601562 L 159.128906 372.699219 C 170.679688 386.878906 171.714844 389.15625 177.972656 395.460938 C 161.425781 358.828125 202.070312 342.910156 255.207031 342.863281 Z M 255.207031 342.863281 "/>
<path style=" stroke:none;fill-rule:nonzero;fill:rgb(62.352943%,65.882355%,85.490197%);fill-opacity:1;" d="M 366.289062 160.675781 C 380.398438 164.179688 393.089844 168.238281 403.554688 172.886719 C 417.226562 178.953125 432.5 166.367188 436.300781 151.902344 L 455.789062 77.816406 C 438.855469 70.472656 422.582031 65.105469 401.636719 60 Z M 366.289062 160.675781 "/>
<path style=" stroke:none;fill-rule:nonzero;fill:rgb(67.450982%,70.19608%,87.450981%);fill-opacity:1;" d="M 308.292969 150.453125 C 331.515625 153.175781 353.367188 157.09375 372.171875 162.132812 L 403.824219 60.546875 C 380.59375 54.59375 355.355469 49.976562 329.195312 46.761719 Z M 308.292969 150.453125 "/>
<path style=" stroke:none;fill-rule:nonzero;fill:rgb(72.549021%,74.117649%,89.019608%);fill-opacity:1;" d="M 242.410156 146.074219 C 266.238281 146.496094 290.101562 148.175781 312.585938 150.988281 L 335.347656 47.597656 C 307.757812 43.957031 279.148438 41.816406 250.894531 41.136719 Z M 242.410156 146.074219 "/>
<path style=" stroke:none;fill-rule:nonzero;fill:rgb(77.64706%,78.431374%,90.980393%);fill-opacity:1;" d="M 182.378906 147.773438 C 202.722656 146.179688 224.148438 145.632812 245.625 146.113281 L 254.285156 41.203125 C 230.027344 40.523438 202.828125 41.605469 179.992188 43.019531 Z M 182.378906 147.773438 "/>
<path style=" stroke:none;fill-rule:nonzero;fill:rgb(87.843138%,86.666667%,94.509804%);fill-opacity:1;" d="M 117.042969 157.976562 L 98.628906 53.796875 C 51.925781 64.617188 21.65625 82.023438 24.394531 105.390625 C 28.65625 141.753906 52.570312 201.265625 58.261719 212.890625 L 58.644531 212.871094 C 51.082031 186.519531 76.367188 168.585938 117.042969 157.976562 Z M 117.042969 157.976562 "/>
<path style=" stroke:none;fill-rule:nonzero;fill:rgb(82.745099%,82.352942%,92.941177%);fill-opacity:1;" d="M 184.964844 147.550781 L 179.992188 43.019531 C 146.3125 44.9375 121.871094 48.171875 95.953125 54.402344 L 114.46875 158.6875 C 134.734375 153.160156 158.929688 149.460938 184.964844 147.550781 Z M 184.964844 147.550781 "/>
<path style=" stroke:none;fill-rule:nonzero;fill:rgb(92.941177%,90.588236%,96.470588%);fill-opacity:1;" d="M 65.203125 184.097656 L 28.609375 88.523438 C 25.210938 93.742188 23.683594 99.359375 24.394531 105.390625 C 28.65625 141.753906 52.570312 201.265625 58.261719 212.890625 L 58.644531 212.871094 C 54.910156 199.882812 55.054688 193.132812 65.203125 184.097656 Z M 65.203125 184.097656 "/>
<path style=" stroke:none;fill-rule:nonzero;fill:rgb(62.352943%,65.882355%,85.490197%);fill-opacity:1;" d="M 87.160156 256.367188 C 80.726562 248.824219 74.476562 241.054688 68.871094 232.664062 C 63.378906 224.257812 58.097656 215.222656 56.148438 204.355469 C 55.324219 198.941406 55.640625 192.910156 58.023438 187.640625 C 60.25 182.292969 64.097656 178.117188 68.074219 174.664062 C 76.242188 167.894531 85.402344 163.554688 94.492188 159.5625 C 113.175781 151.546875 133.113281 148.558594 152.6875 146.574219 C 172.347656 144.710938 191.992188 144.105469 211.601562 143.683594 C 250.753906 142.789062 290.378906 143.28125 329.15625 150.257812 C 348.546875 153.609375 367.613281 158.871094 386.035156 165.621094 C 395.25 168.625 404.410156 173.269531 413.902344 173.078125 C 418.65625 172.914062 422.832031 170.140625 426.085938 166.644531 C 429.390625 163.140625 432.382812 159.226562 434.996094 155.117188 L 435.207031 155.242188 C 433.230469 160.261719 430.40625 163.863281 427.046875 167.546875 C 423.773438 171.207031 419.242188 174.382812 414.027344 174.652344 C 408.894531 175.113281 404.007812 173.625 399.300781 172.261719 C 394.578125 170.824219 389.972656 169.171875 385.335938 167.617188 C 366.855469 161.230469 347.902344 156.375 328.617188 153.398438 C 290.015625 147.1875 250.839844 147.40625 211.757812 149.011719 C 192.222656 149.777344 172.683594 150.75 153.359375 152.929688 C 134.113281 155.222656 114.824219 158.5625 97.515625 166.378906 C 88.789062 170.371094 80.140625 174.796875 73.304688 180.710938 C 66.34375 186.59375 62.839844 194.429688 64.578125 202.945312 C 66.222656 211.449219 71.039062 219.800781 76.378906 227.566406 C 81.800781 235.371094 87.984375 242.804688 94.386719 250.042969 Z M 87.160156 256.367188 "/>
<path style=" stroke:none;fill-rule:nonzero;fill:rgb(92.941177%,90.588236%,96.470588%);fill-opacity:1;" d="M 128.042969 220.933594 C 96.125 230.871094 77.53125 246.605469 85.871094 268.386719 C 96.652344 296.535156 135.714844 345.042969 153.53125 369.589844 C 149.671875 361.046875 148.90625 353.585938 150.539062 347.097656 Z M 128.042969 220.933594 "/>
<path style=" stroke:none;fill-rule:nonzero;fill:rgb(86.666667%,85.490197%,94.117647%);fill-opacity:1;" d="M 189.320312 318.96875 L 189.320312 209.894531 C 165.292969 211.976562 143.308594 215.902344 125.65625 221.691406 L 151.296875 366.527344 C 152.054688 367.566406 152.839844 368.621094 153.542969 369.582031 C 141.476562 342.894531 158.859375 326.457031 189.320312 318.96875 Z M 189.320312 318.96875 "/>
<path style=" stroke:none;fill-rule:nonzero;fill:rgb(80.784315%,80.784315%,92.156863%);fill-opacity:1;" d="M 179.992188 321.667969 C 196.492188 316.003906 218.351562 313.652344 242.042969 314.292969 L 242.042969 208.234375 C 221.039062 207.839844 200.238281 208.644531 180.941406 210.699219 Z M 179.992188 321.667969 "/>
<path style=" stroke:none;fill-rule:nonzero;fill:rgb(74.509805%,75.686276%,89.803922%);fill-opacity:1;" d="M 228.796875 314.238281 C 250.847656 313.746094 275.210938 316.117188 298.742188 321.101562 L 307.554688 213.542969 C 285.0625 210.210938 261.070312 208.40625 237.390625 208.167969 Z M 228.796875 314.238281 "/>
<path style=" stroke:none;fill-rule:nonzero;fill:rgb(68.627453%,70.980394%,87.843138%);fill-opacity:1;" d="M 295.890625 211.96875 L 274.425781 316.925781 C 293.203125 319.421875 312.125 323.578125 329.636719 329.328125 C 336.960938 331.726562 344.726562 328.875 350.332031 323.558594 L 356.457031 224.132812 C 338.488281 218.6875 317.761719 214.636719 295.890625 211.96875 Z M 295.890625 211.96875 "/>
<path style=" stroke:none;fill-rule:nonzero;fill:rgb(62.352943%,65.882355%,85.490197%);fill-opacity:1;" d="M 400.222656 244.28125 C 386.699219 234.113281 367.035156 226.742188 347.039062 221.480469 L 314.554688 324.855469 C 319.671875 326.21875 324.71875 327.707031 329.644531 329.320312 C 339.265625 332.476562 349.660156 326.59375 354.894531 317.933594 C 364.675781 301.757812 380.535156 275.625 392.082031 257.144531 Z M 400.222656 244.28125 "/>
<path style=" stroke:none;fill-rule:nonzero;fill:rgb(87.843138%,86.666667%,94.509804%);fill-opacity:1;" d="M 128.042969 220.933594 C 96.125 230.871094 77.53125 246.605469 85.871094 268.386719 C 96.652344 296.535156 135.714844 345.042969 153.53125 369.589844 C 149.671875 361.046875 148.90625 353.585938 150.539062 347.097656 Z M 128.042969 220.933594 "/>
<path style=" stroke:none;fill-rule:nonzero;fill:rgb(82.745099%,82.352942%,92.941177%);fill-opacity:1;" d="M 189.320312 318.96875 L 189.320312 209.894531 C 165.292969 211.976562 143.308594 215.902344 125.65625 221.691406 L 152.476562 362.773438 C 153.234375 363.8125 152.839844 368.621094 153.53125 369.582031 C 141.476562 342.894531 158.859375 326.457031 189.320312 318.96875 Z M 189.320312 318.96875 "/>
<path style=" stroke:none;fill-rule:nonzero;fill:rgb(77.64706%,78.431374%,90.980393%);fill-opacity:1;" d="M 189.320312 318.96875 C 205.824219 313.304688 218.351562 313.652344 242.042969 314.292969 L 242.042969 208.234375 C 221.039062 207.839844 200.238281 208.644531 180.941406 210.699219 Z M 189.320312 318.96875 "/>
<path style=" stroke:none;fill-rule:nonzero;fill:rgb(72.549021%,74.117649%,89.019608%);fill-opacity:1;" d="M 228.796875 314.238281 C 250.847656 313.746094 275.210938 316.117188 298.742188 321.101562 L 307.554688 213.542969 C 285.0625 210.210938 261.070312 208.40625 237.390625 208.167969 Z M 228.796875 314.238281 "/>
<path style=" stroke:none;fill-rule:nonzero;fill:rgb(67.450982%,70.19608%,87.450981%);fill-opacity:1;" d="M 295.890625 211.96875 L 274.425781 316.925781 C 293.203125 319.421875 312.125 323.578125 329.636719 329.328125 C 336.960938 331.726562 344.726562 328.875 350.332031 323.558594 L 356.457031 224.132812 C 338.488281 218.6875 317.761719 214.636719 295.890625 211.96875 Z M 295.890625 211.96875 "/>
<path style=" stroke:none;fill-rule:nonzero;fill:rgb(62.352943%,65.882355%,85.490197%);fill-opacity:1;" d="M 400.222656 244.28125 C 386.699219 234.113281 372.941406 228.363281 352.945312 223.105469 L 314.554688 324.863281 C 319.671875 326.226562 324.71875 327.714844 329.644531 329.328125 C 339.265625 332.488281 349.660156 326.601562 354.894531 317.941406 C 364.675781 301.765625 380.535156 275.636719 392.082031 257.15625 Z M 400.222656 244.28125 "/>
<path style=" stroke:none;fill-rule:nonzero;fill:rgb(62.352943%,65.882355%,85.490197%);fill-opacity:1;" d="M 355.035156 317.691406 C 352.714844 321.089844 349.902344 324.5 346.273438 326.878906 C 342.59375 329.230469 338.09375 330.191406 333.839844 330.066406 C 325.304688 329.703125 317.519531 327.140625 309.707031 325.21875 C 294.164062 321.035156 278.488281 317.886719 262.53125 316.800781 C 246.566406 315.820312 230.46875 315.582031 214.558594 316.714844 C 198.796875 318.019531 182.542969 320.238281 168.789062 326.910156 C 162.113281 330.316406 156.34375 335.472656 154.148438 342.085938 C 152.996094 345.351562 152.707031 349.007812 153.070312 352.570312 C 153.445312 355.976562 154.789062 359.453125 156.625 362.679688 C 160.195312 369.003906 166.433594 374.679688 171.464844 381.035156 L 187.066406 399.5625 C 197.453125 411.667969 208.011719 424.273438 221.835938 431.5 C 228.671875 435.101562 236.496094 436.636719 244.15625 435.214844 C 251.847656 433.902344 259.652344 430.789062 266.132812 426.164062 L 266.449219 426.566406 C 260.121094 431.644531 253.007812 436.222656 244.761719 438.144531 C 236.59375 440.140625 227.558594 439.054688 219.972656 435.351562 C 204.664062 427.921875 193.554688 415.277344 182.628906 403.421875 L 166.753906 385.074219 L 158.765625 376.03125 C 156.105469 373.179688 153.101562 369.648438 150.988281 365.921875 C 146.351562 358.492188 144.757812 348.585938 147.714844 339.90625 C 150.652344 330.910156 158.179688 324.757812 165.742188 320.929688 C 181.296875 313.574219 197.828125 311.636719 214.097656 310.328125 C 230.449219 309.195312 246.75 309.65625 263 311.125 C 279.292969 312.664062 295.402344 316.15625 310.894531 320.957031 C 318.632812 323.242188 326.304688 326.054688 333.964844 326.707031 C 337.777344 326.976562 348.375 326.027344 354.605469 317.5 Z M 355.035156 317.691406 "/>
<path style=" stroke:none;fill-rule:nonzero;fill:rgb(92.941177%,90.588236%,96.470588%);fill-opacity:1;" d="M 90.085938 242.273438 C 83.933594 249.734375 82.0625 258.414062 85.871094 268.378906 C 91.210938 282.316406 112.03125 316.695312 151.738281 367.171875 Z M 90.085938 242.273438 "/>
</g>
</svg>
